# Original ARGOS geometry, MIT license. Metres; 12 m wide, 1.2 m rise.
# Closed triangular prism, 0.18 m thick. Local material; no textures.
mtllib shed_gable.mtl
o shed_gable
v -6 -0.09 0
v 6 -0.09 0
v 0 -0.09 1.2
v -6 0.09 0
v 6 0.09 0
v 0 0.09 1.2
vn 0 -1 0
vn 0 1 0
vn 0 0 -1
vn 0.196116135 0 0.980580676
vn -0.196116135 0 0.980580676
usemtl painted_steel
s off
f 1//1 2//1 3//1
f 6//2 5//2 4//2
f 1//3 4//3 5//3
f 1//3 5//3 2//3
f 2//4 5//4 6//4
f 2//4 6//4 3//4
f 3//5 6//5 4//5
f 3//5 4//5 1//5
